<?xml version="1.0" encoding="iso-8859-1"?>
<!-- Generator: Adobe Illustrator 19.1.1, SVG Export Plug-In . SVG Version: 6.00 Build 0)  -->
<svg version="1.1" id="Calque_1" xmlns="http://www.w3.org/2000/svg" xmlns:xlink="http://www.w3.org/1999/xlink" x="0px" y="0px"
	 viewBox="0 0 317.912 77.332" style="enable-background:new 0 0 317.912 77.332;" xml:space="preserve">
<g>
	<g>
		<rect x="0.168" style="fill:#951B81;" width="317.744" height="21.739"/>
		<g>
			<path style="fill:#FFFFFF;" d="M92.835,13.904c-0.59-0.877-1.061-1.51-1.399-1.881c-0.174-0.19-0.348-0.357-0.522-0.505
				c0.358-0.205,0.654-0.462,0.882-0.767c0.359-0.475,0.541-1.042,0.541-1.685c0-0.942-0.37-1.703-1.099-2.26
				c-0.694-0.532-1.635-0.802-2.795-0.802h-3.046v10.423h2.265v-4.218h0.023c0.579,0,0.814,0.073,0.905,0.118
				c0.178,0.086,0.389,0.238,0.626,0.45c0.251,0.227,0.528,0.53,0.806,0.88l0.998,1.486l0.297,0.38l0.084,0.108l0.577,0.795h2.794
				l-1.061-1.305C93.496,14.855,93.21,14.458,92.835,13.904z M87.662,7.938h0.087c0.884,0,1.309,0.073,1.507,0.133
				c0.25,0.078,0.435,0.203,0.567,0.383c0.133,0.182,0.198,0.378,0.198,0.6c0,0.231-0.059,0.432-0.179,0.611
				c-0.122,0.18-0.289,0.313-0.508,0.403c-0.138,0.056-0.512,0.151-1.462,0.151h-0.21V7.938z"/>
			<polygon style="fill:#FFFFFF;" points="98.207,12.182 102.578,12.182 102.578,10.194 98.207,10.194 98.207,7.989 102.73,7.989 
				102.73,6.002 95.943,6.002 95.943,16.425 102.88,16.425 102.88,14.437 98.207,14.437 			"/>
			<polygon style="fill:#FFFFFF;" points="104.03,7.989 107.692,7.989 107.692,16.425 109.984,16.425 109.984,7.989 113.695,7.989 
				113.695,6.002 104.03,6.002 			"/>
			<path style="fill:#FFFFFF;" d="M129.648,5.926l-4.845,10.343l-0.931-1.149c-0.215-0.266-0.509-0.674-0.873-1.216
				c-0.606-0.898-1.065-1.513-1.401-1.879c-0.17-0.188-0.344-0.357-0.521-0.507c0.358-0.205,0.655-0.462,0.885-0.769
				c0.355-0.476,0.536-1.042,0.536-1.684c0-0.942-0.369-1.703-1.096-2.261c-0.697-0.532-1.638-0.802-2.796-0.802h-3.045v10.423
				h2.265v-4.218h0.026c0.577,0,0.812,0.073,0.901,0.117c0.18,0.088,0.39,0.24,0.626,0.452c0.245,0.219,0.522,0.523,0.806,0.88
				l0.997,1.487l0.297,0.377l0.084,0.11l0.578,0.794h2.589h0.2h2.191l1.333-2.879h4.063l1.411,2.879h2.396l-5.14-10.5H129.648z
				 M117.826,7.938h0.089c0.885,0,1.307,0.073,1.504,0.133c0.251,0.078,0.437,0.204,0.567,0.38c0.132,0.185,0.197,0.382,0.197,0.602
				c0,0.235-0.058,0.435-0.177,0.611c-0.123,0.182-0.29,0.314-0.509,0.404c-0.137,0.057-0.51,0.151-1.46,0.151h-0.21V7.938z
				 M131.537,11.558h-2.142l1.026-2.255L131.537,11.558z"/>
			<rect x="137.707" y="6.002" style="fill:#FFFFFF;" width="2.266" height="10.423"/>
			<polygon style="fill:#FFFFFF;" points="141.871,7.989 145.535,7.989 145.535,16.425 147.825,16.425 147.825,7.989 151.537,7.989 
				151.537,6.002 141.871,6.002 			"/>
			<polygon style="fill:#FFFFFF;" points="155.617,12.182 159.984,12.182 159.984,10.194 155.617,10.194 155.617,7.989 
				160.135,7.989 160.135,6.002 153.35,6.002 153.35,16.425 160.289,16.425 160.289,14.437 155.617,14.437 			"/>
			<path style="fill:#FFFFFF;" d="M173.607,14.513c-1.141,0-2.084-0.315-2.805-0.936c-0.714-0.614-1.061-1.377-1.061-2.334
				c0-0.949,0.354-1.716,1.08-2.346c0.742-0.646,1.655-0.959,2.793-0.959c1.125,0,2.298,0.31,3.486,0.919l0.546,0.281V6.775
				l-0.241-0.092c-3.465-1.322-6.226-0.984-8.196,0.728c-1.186,1.032-1.786,2.324-1.786,3.84c0,0.954,0.264,1.854,0.785,2.678
				c0.517,0.816,1.227,1.464,2.109,1.927c0.882,0.462,1.959,0.696,3.203,0.696c1.517,0,2.878-0.303,4.047-0.9l0.204-0.104v-2.399
				l-0.564,0.331C176.037,14.165,174.826,14.513,173.607,14.513z"/>
			<path style="fill:#FFFFFF;" d="M185.663,5.875c-1.732,0-3.189,0.509-4.327,1.512c-1.157,1.019-1.744,2.321-1.744,3.87
				c0,1.515,0.583,2.793,1.732,3.798c1.134,0.993,2.565,1.497,4.255,1.497c1.761,0,3.247-0.502,4.417-1.493
				c1.186-1.004,1.787-2.292,1.787-3.828c0-1.534-0.595-2.828-1.77-3.845C188.852,6.384,187.388,5.875,185.663,5.875z
				 M185.672,14.513c-1.099,0-1.985-0.309-2.711-0.944c-0.708-0.621-1.052-1.38-1.052-2.319c0-0.972,0.343-1.746,1.05-2.366
				c0.723-0.636,1.625-0.945,2.76-0.945c1.062,0,1.964,0.321,2.682,0.955c0.718,0.629,1.067,1.382,1.067,2.302
				c0,0.948-0.35,1.718-1.069,2.355C187.681,14.188,186.764,14.513,185.672,14.513z"/>
			<polygon style="fill:#FFFFFF;" points="199.405,9.784 196.062,6.002 194.065,6.002 194.065,16.425 196.33,16.425 196.33,9.513 
				199.087,12.637 199.709,12.637 202.449,9.517 202.449,16.425 204.739,16.425 204.739,6.002 202.76,6.002 			"/>
			<path style="fill:#FFFFFF;" d="M211.093,6.002h-3.752v10.423h2.29v-4.193h0.752c1.058,0,1.856-0.103,2.443-0.316
				c0.608-0.222,1.096-0.584,1.45-1.079c0.354-0.497,0.532-1.072,0.532-1.711c0-0.951-0.35-1.722-1.043-2.292
				C213.095,6.282,212.196,6.002,211.093,6.002z M209.631,7.989h1.208c1.466,0,1.653,0.59,1.653,1.103
				c0,0.379-0.113,0.644-0.358,0.835c-0.269,0.21-0.675,0.317-1.206,0.317h-1.297V7.989z"/>
			<polygon style="fill:#FFFFFF;" points="218.807,6.002 216.541,6.002 216.541,16.425 223.606,16.425 223.606,14.411 
				218.807,14.411 			"/>
			<polygon style="fill:#FFFFFF;" points="227.629,12.182 231.996,12.182 231.996,10.194 227.629,10.194 227.629,7.989 
				232.147,7.989 232.147,6.002 225.363,6.002 225.363,16.425 232.299,16.425 232.299,14.437 227.629,14.437 			"/>
			<polygon style="fill:#FFFFFF;" points="239.676,9.784 236.333,6.002 234.335,6.002 234.335,16.425 236.6,16.425 236.6,9.513 
				239.358,12.637 239.981,12.637 242.72,9.517 242.72,16.425 245.01,16.425 245.01,6.002 243.031,6.002 			"/>
			<polygon style="fill:#FFFFFF;" points="249.953,12.182 254.324,12.182 254.324,10.194 249.953,10.194 249.953,7.989 
				254.475,7.989 254.475,6.002 247.69,6.002 247.69,16.425 254.626,16.425 254.626,14.437 249.953,14.437 			"/>
			<polygon style="fill:#FFFFFF;" points="265.147,12.952 258.49,6.002 256.711,6.002 256.711,16.425 258.903,16.425 258.903,9.537 
				265.499,16.425 267.338,16.425 267.338,6.002 265.147,6.002 			"/>
			<polygon style="fill:#FFFFFF;" points="278.796,6.002 269.131,6.002 269.131,7.989 272.792,7.989 272.792,16.425 275.083,16.425 
				275.083,7.989 278.796,7.989 			"/>
			<path style="fill:#FFFFFF;" d="M282.59,5.926l-4.918,10.5h2.391l1.333-2.879h4.063l1.413,2.879h2.396l-5.142-10.5H282.59z
				 M284.48,11.558h-2.142l1.026-2.255L284.48,11.558z"/>
			<rect x="290.653" y="6.002" style="fill:#FFFFFF;" width="2.263" height="10.423"/>
			<path style="fill:#FFFFFF;" d="M303.186,13.903c-0.604-0.895-1.062-1.509-1.399-1.88c-0.171-0.188-0.346-0.357-0.522-0.507
				c0.357-0.204,0.654-0.461,0.885-0.769c0.356-0.475,0.537-1.042,0.537-1.684c0-0.941-0.369-1.702-1.098-2.26
				c-0.695-0.532-1.636-0.802-2.794-0.802h-3.047v10.423h2.267v-4.218h0.022c0.576,0,0.814,0.074,0.903,0.117
				c0.181,0.088,0.391,0.24,0.627,0.452c0.245,0.218,0.522,0.522,0.807,0.879l1.955,2.769h2.789l-1.058-1.307
				C303.848,14.858,303.562,14.461,303.186,13.903z M298.014,7.938h0.087c0.884,0,1.307,0.073,1.505,0.133
				c0.25,0.078,0.436,0.203,0.566,0.382c0.134,0.183,0.198,0.379,0.198,0.6c0,0.234-0.059,0.434-0.179,0.613
				c-0.119,0.179-0.286,0.31-0.507,0.401c-0.139,0.056-0.513,0.151-1.463,0.151h-0.208V7.938z"/>
			<polygon style="fill:#FFFFFF;" points="308.559,14.437 308.559,12.182 312.927,12.182 312.927,10.194 308.559,10.194 
				308.559,7.989 313.08,7.989 313.08,6.002 306.293,6.002 306.293,16.425 313.23,16.425 313.23,14.437 			"/>
		</g>
		<circle style="fill:#FFFFFF;" cx="70.62" cy="10.564" r="5.716"/>
		<path d="M31.665,53.84c-1.593,2.895-3.768,4.338-6.528,4.338c-3.09,0-5.08-1.565-5.968-4.697
			c-4.259,3.369-8.264,5.055-12.005,5.055c-2.11,0-3.83-0.592-5.162-1.77C0.665,55.588,0,54.055,0,52.168
			c0-2.164,0.722-3.983,2.169-5.444c1.447-1.46,4.153-3.088,8.122-4.878l5.251-2.403c1.494-0.661,2.39-1.143,2.696-1.45
			c0.303-0.308,0.456-0.84,0.456-1.591c0-3.49-0.448-5.81-1.335-6.968c-0.889-1.152-2.644-1.731-5.264-1.731
			c-2.575,0-4.472,0.571-5.687,1.709c-0.376,0.38-0.609,1.187-0.703,2.423c-0.14,2.086-1.121,3.128-2.94,3.128
			c-0.745,0-1.364-0.246-1.852-0.744c-0.493-0.496-0.734-1.1-0.734-1.811c0-1.936,1.202-3.485,3.616-4.647
			c2.411-1.157,5.633-1.737,9.663-1.737c4.024,0,6.932,0.742,8.71,2.232c1.777,1.486,2.668,3.904,2.668,7.252v13.668
			c0,3.823,0.869,5.735,2.606,5.735c1.031,0,1.993-0.617,2.887-1.854L31.665,53.84 M18.694,51.616V39.911
			c-4.627,2.071-7.835,3.869-9.612,5.396c-1.785,1.528-2.674,3.28-2.674,5.253c0,1.456,0.426,2.682,1.282,3.668
			c0.856,0.986,1.909,1.479,3.16,1.479C13.254,55.707,15.871,54.346,18.694,51.616z"/>
		<path d="M110.018,29.769c0,0.703-0.246,1.299-0.733,1.793c-0.488,0.49-1.086,0.736-1.786,0.736c-1.071,0-1.936-0.555-2.587-1.671
			c-0.792-1.301-1.633-1.95-2.517-1.95c-1.308,0-2.533,0.484-3.676,1.451c-1.144,0.967-1.997,2.111-2.553,3.43
			c-0.654,1.511-0.979,4.059-0.979,7.639v6.512c0,2.361,0.044,4.084,0.141,5.166c0.093,1.273,0.422,2.076,0.988,2.408
			c0.566,0.33,2.002,0.613,4.311,0.848v1.699c-3.179-0.211-5.892-0.318-8.137-0.318c-2.29,0-5.05,0.107-8.274,0.318v-1.699
			c1.752-0.234,2.861-0.434,3.323-0.6c0.46-0.165,0.843-0.565,1.142-1.203c0.3-0.633,0.45-2.838,0.45-6.605v-7.848
			c0-4.991-0.212-7.913-0.641-8.758c-0.426-0.849-1.851-1.297-4.274-1.345v-1.555c2.506-0.329,5.171-0.989,7.997-1.979
			c0.324-0.14,0.834-0.329,1.531-0.566c0.557,2.487,0.858,5.045,0.903,7.668c2.412-4.819,5.866-7.227,10.366-7.227
			c1.436,0,2.63,0.34,3.577,1.02C109.543,27.811,110.018,28.691,110.018,29.769z"/>
		<path d="M138.173,52.821c-3.069,3.576-7.148,5.367-12.231,5.367c-4.353,0-7.924-1.397-10.718-4.186
			c-2.792-2.789-4.19-6.346-4.19-10.677c0-4.884,1.603-8.913,4.811-12.092c3.204-3.183,7.258-4.772,12.159-4.772
			c2.702,0,4.889,0.44,6.561,1.316c1.67,0.878,2.506,2.037,2.506,3.465c0,0.649-0.239,1.229-0.72,1.736
			c-0.48,0.508-1.018,0.763-1.613,0.763c-1.371,0-2.403-0.917-3.088-2.748c-0.46-1.22-0.917-2.008-1.374-2.361
			c-0.455-0.353-1.281-0.527-2.472-0.527c-3.066,0-5.466,1.248-7.203,3.748c-1.741,2.496-2.61,5.946-2.61,10.34
			c0,9.164,3.316,13.744,9.955,13.744c3.107,0,6.039-1.477,8.782-4.425L138.173,52.821z"/>
		<path d="M280.727,53.223c-3.071,3.578-7.146,5.367-12.23,5.367c-4.35,0-7.924-1.397-10.718-4.183
			c-2.794-2.788-4.191-6.347-4.191-10.678c0-4.886,1.602-8.914,4.811-12.094c3.203-3.182,7.258-4.769,12.158-4.769
			c2.702,0,4.89,0.437,6.561,1.316c1.672,0.876,2.506,2.037,2.506,3.462c0,0.65-0.24,1.229-0.72,1.737
			c-0.479,0.509-1.017,0.761-1.611,0.761c-1.377,0-2.405-0.915-3.091-2.748c-0.46-1.219-0.914-2.009-1.374-2.359
			c-0.457-0.351-1.28-0.529-2.47-0.529c-3.064,0-5.467,1.251-7.205,3.749c-1.74,2.497-2.609,5.947-2.609,10.342
			c0,9.161,3.316,13.742,9.951,13.742c3.111,0,6.042-1.474,8.786-4.425L280.727,53.223z"/>
		<path d="M200.751,53.84c-1.592,2.895-3.77,4.338-6.531,4.338c-3.089,0-5.077-1.565-5.968-4.697
			c-4.257,3.369-8.258,5.055-12.004,5.055c-2.105,0-3.831-0.592-5.162-1.77c-1.335-1.178-2.001-2.711-2.001-4.598
			c0-2.164,0.726-3.983,2.167-5.444c1.449-1.46,4.155-3.088,8.122-4.878l5.254-2.403c1.492-0.661,2.392-1.143,2.693-1.45
			c0.306-0.308,0.46-0.84,0.46-1.591c0-3.49-0.447-5.81-1.339-6.968c-0.888-1.152-2.643-1.731-5.264-1.731
			c-2.576,0-4.471,0.571-5.688,1.709c-0.376,0.38-0.609,1.187-0.701,2.423c-0.138,2.086-1.122,3.128-2.94,3.128
			c-0.746,0-1.366-0.246-1.855-0.744c-0.492-0.496-0.734-1.1-0.734-1.811c0-1.936,1.204-3.485,3.618-4.647
			c2.411-1.157,5.632-1.737,9.661-1.737c4.028,0,6.932,0.742,8.711,2.232c1.781,1.486,2.67,3.904,2.67,7.252v13.668
			c0,3.823,0.869,5.735,2.605,5.735c1.029,0,1.995-0.617,2.889-1.854L200.751,53.84 M187.782,51.616V39.911
			c-4.63,2.071-7.836,3.869-9.615,5.396c-1.786,1.528-2.675,3.28-2.675,5.253c0,1.456,0.426,2.682,1.287,3.668
			c0.851,0.986,1.904,1.479,3.156,1.479C182.339,55.707,184.955,54.346,187.782,51.616z"/>
		<path d="M226.658,29.769c0,0.703-0.246,1.299-0.735,1.793c-0.492,0.49-1.085,0.736-1.787,0.736c-1.067,0-1.93-0.555-2.586-1.671
			c-0.794-1.301-1.635-1.95-2.517-1.95c-1.307,0-2.535,0.484-3.675,1.451c-1.144,0.967-1.991,2.111-2.555,3.43
			c-0.651,1.511-0.978,4.059-0.978,7.639v6.512c0,2.361,0.045,4.084,0.142,5.166c0.092,1.273,0.423,2.076,0.987,2.408
			c0.566,0.33,2.003,0.613,4.313,0.848v1.699c-3.179-0.211-5.891-0.318-8.135-0.318c-2.292,0-5.051,0.107-8.276,0.318v-1.699
			c1.753-0.234,2.858-0.434,3.318-0.6c0.465-0.165,0.844-0.565,1.145-1.203c0.301-0.633,0.45-2.838,0.45-6.605v-7.848
			c0-4.991-0.217-7.913-0.641-8.758c-0.426-0.849-1.852-1.297-4.273-1.345v-1.555c2.503-0.329,5.17-0.989,7.996-1.979
			c0.326-0.14,0.834-0.329,1.533-0.566c0.553,2.487,0.855,5.045,0.904,7.668c2.407-4.819,5.861-7.227,10.362-7.227
			c1.437,0,2.627,0.34,3.579,1.02C226.182,27.811,226.658,28.691,226.658,29.769z"/>
		<path d="M253.544,29.769c0,0.703-0.242,1.299-0.733,1.793c-0.488,0.49-1.084,0.736-1.782,0.736c-1.072,0-1.935-0.555-2.587-1.671
			c-0.794-1.301-1.635-1.95-2.521-1.95c-1.31,0-2.532,0.484-3.677,1.451c-1.141,0.967-1.991,2.111-2.55,3.43
			c-0.65,1.511-0.981,4.059-0.981,7.639v6.512c0,2.361,0.049,4.084,0.143,5.166c0.093,1.273,0.424,2.076,0.99,2.408
			c0.563,0.33,1.999,0.613,4.312,0.848v1.699c-3.185-0.211-5.895-0.318-8.137-0.318c-2.293,0-5.053,0.107-8.275,0.318v-1.699
			c1.75-0.234,2.859-0.434,3.322-0.6c0.46-0.165,0.844-0.565,1.145-1.203c0.296-0.633,0.446-2.838,0.446-6.605v-7.848
			c0-4.991-0.213-7.913-0.638-8.758c-0.431-0.849-1.852-1.297-4.275-1.345v-1.555c2.504-0.329,5.169-0.989,7.998-1.979
			c0.32-0.14,0.832-0.329,1.527-0.566c0.558,2.487,0.861,5.045,0.906,7.668c2.411-4.819,5.864-7.227,10.359-7.227
			c1.438,0,2.634,0.34,3.584,1.02C253.071,27.811,253.544,28.691,253.544,29.769z"/>
		<path d="M317.042,43.03c0,4.316-1.631,7.982-4.893,10.991c-3.262,3.01-7.219,4.515-11.875,4.515
			c-4.607,0-8.533-1.576-11.772-4.721c-3.238-3.148-4.855-6.974-4.855-11.477c0-4.226,1.627-7.854,4.892-10.886
			c3.261-3.035,7.176-4.551,11.735-4.551c4.7,0,8.67,1.56,11.908,4.686C315.422,34.712,317.042,38.524,317.042,43.03
			 M310.106,43.065c0-9.408-3.21-14.25-9.626-14.525c-3.051-0.139-5.46,1.022-7.233,3.474c-1.779,2.454-2.667,5.838-2.667,10.152
			c0,9.821,3.325,14.729,9.969,14.729c3.046,0,5.403-1.212,7.065-3.645C309.274,50.815,310.106,47.421,310.106,43.065z"/>
		<path d="M58.433,30.445c1.659,2.033,2.491,4.394,2.491,7.088c0,2.502-0.655,4.678-1.965,6.518
			c-1.308,1.844-3.109,3.143-5.401,3.896c-1.403,0.475-3.507,0.759-6.313,0.852c-5.098,0.191-7.646,1.205-7.646,3.048
			c0,0.804,0.304,1.344,0.912,1.631c0.607,0.284,1.848,0.499,3.723,0.635l6.529,0.427c4.869,0.33,7.99,0.861,9.372,1.59
			c1.379,0.729,2.515,1.902,3.406,3.527c0.887,1.622,1.334,3.375,1.334,5.256c0,3.715-1.45,6.713-4.351,8.998
			c-2.902,2.279-6.69,3.421-11.367,3.421c-4.631,0-8.362-0.911-11.193-2.726c-2.829-1.818-4.245-4.215-4.245-7.189
			c0-1.606,0.527-3.012,1.58-4.215c1.054-1.203,2.283-1.808,3.686-1.808c1.078,0,2.058,0.427,2.949,1.274
			c-2.436,0.66-3.651,2.381-3.651,5.166c0,5.096,3.767,7.643,11.304,7.643c3.135,0,5.663-0.742,7.584-2.219
			c1.917-1.479,2.877-3.417,2.877-5.807c0-3.383-1.618-5.475-4.853-6.27c-1.031-0.239-2.932-0.447-5.695-0.633
			c-1.078-0.06-2.18-0.117-3.303-0.179c-4.267-0.097-7.033-0.755-8.298-1.979C36.632,57.165,36,55.701,36,54.002
			c0-3.393,2.117-5.515,6.353-6.365c-5.113-2.027-7.671-5.422-7.671-10.188c0-3.348,1.265-6.106,3.794-8.275
			c2.528-2.169,5.761-3.255,9.694-3.255c3.511,0,6.51,1.082,8.993,3.251L58.433,30.445z M54.781,37.878
			c0-6.913-2.34-10.369-7.019-10.369c-2.155,0-3.862,0.883-5.128,2.646c-1.265,1.765-1.895,4.151-1.895,7.161
			c0,3.057,0.63,5.458,1.895,7.195c1.266,1.74,2.997,2.607,5.197,2.607c2.061,0,3.73-0.846,5.019-2.538
			C54.136,42.886,54.781,40.653,54.781,37.878z"/>
		<path d="M76.716,55.52c-0.501-0.355-0.795-1.141-0.884-2.366c-0.092-1.087-0.137-2.804-0.137-5.16l-0.172-20.086l-0.054,0.012
			c-0.098-0.98-0.607-1.8-1.58-2.441c-1.081-0.716-2.438-1.024-4.075-1.073c-1.705-0.047-3.226,0.182-4.595,0.673l0.014-0.011
			c-1.613,0.42-3.458,1.93-4.826,3.24c-0.686,0.622-1.215,1.198-1.574,1.621c-0.272,0.303-0.347,0.426-0.347,0.426
			c-0.13,0.167-0.201,0.268-0.201,0.268l0.191,0.604c-0.149,0.254,0.539,2.593,1.283,1.005c0.632-1.381,1.595-2.579,2.884-3.593
			l0.012,0.005c0,0,0.069-0.058,0.176-0.135c0.057-0.042,0.116-0.076,0.174-0.117c0.268-0.174,0.682-0.394,1.218-0.554
			c1.135-0.21,4.723-0.54,4.748,3.729c0.002,0.301,0.013,0.55,0.032,0.759v22.928c-0.212,0.261-0.448,0.449-0.713,0.547
			c-0.455,0.164-1.544,0.364-3.265,0.601v1.696c3.126-0.21,5.799-0.315,8.021-0.315c2.085,0,4.577,0.106,7.478,0.315v-1.694
			C78.483,56.167,77.213,55.874,76.716,55.52z"/>
	</g>
	<g>
		<path style="fill:#951B81;" d="M161.156,45.444c0,0.218-0.179,0.397-0.396,0.397h-14.748c-0.218,0-0.397-0.179-0.397-0.397v-2.707
			c0-0.218,0.09-0.396,0.397-0.396h14.748c0.258,0,0.396,0.179,0.396,0.396V45.444z"/>
	</g>
</g>
</svg>
