<svg id="Calque_3" data-name="Calque 3" xmlns="http://www.w3.org/2000/svg" viewBox="0 0 549.83 158.92"><defs><style>.cls-1{fill:#d51317;}.cls-2{fill:#00569d;}</style></defs><path class="cls-1" d="M608.25,378.79a.91.91,0,0,0-.8-.82l-6.93-.83,19.65-16.9L632,381l-6.58-.87a.91.91,0,0,0-.69.2,1,1,0,0,0-.34.64c-1.56,17.92.07,29.7,4.84,35.15C611.76,407.42,608.56,381.75,608.25,378.79Zm82.68,25.27-3.68-4.35a.93.93,0,0,0-1.25-.15c-17.55,13.14-32.54,19.63-44.75,19.39,15.34-4.26,35-28.72,36-29.95a.92.92,0,0,0,0-1.17l-3.07-3.65,22.32-4.71Z" transform="translate(-146.62 -314.27)"/><path class="cls-1" d="M677.9,333.26l-36.44,72.88,28.17-76.34a.91.91,0,0,0-.08-.8,1.09,1.09,0,0,0-.63-.37l-.33-.14c-.08,0-3.5-1.41-6.41-2.64l19.16-11.58,4.8,21.59-7.36-3.11A.93.93,0,0,0,677.9,333.26Z" transform="translate(-146.62 -314.27)"/><path class="cls-2" d="M185.75,430.6v-36l-14,27.34L157.59,394.6l.16,36H146.62V375.51h12l13.12,25,13-25h11.88V430.6Z" transform="translate(-146.62 -314.27)"/><path class="cls-2" d="M230,411c0,6.07-1.41,9.87-4.32,11.41a7.89,7.89,0,0,1-3.49.89q-4.11,0-6.72-4.37a15.43,15.43,0,0,1-2.25-8.09,13.83,13.83,0,0,1,2.25-7.68,7.53,7.53,0,0,1,6.64-4,7,7,0,0,1,5.65,2.75A9.21,9.21,0,0,1,230,408Zm11,2.75V391.69H230v2.51a12.57,12.57,0,0,0-9-3.48c-5.73,0-10.3,1.94-13.7,5.74a20.35,20.35,0,0,0-5.15,14.08,21.32,21.32,0,0,0,5.39,14.8c3.74,4.13,8.64,6.15,14.62,6.15a19,19,0,0,0,13.46-4.93A16.58,16.58,0,0,0,241,413.77Z" transform="translate(-146.62 -314.27)"/><path class="cls-2" d="M267.4,400.43a8.3,8.3,0,0,0-6,2.42,7.85,7.85,0,0,0-2.49,5.83V430.6h-10.8V409.08c0-5.58,1.75-9.87,5.4-12.86,3.41-2.83,8.06-4.2,13.87-4.2h7.15v8.41Z" transform="translate(-146.62 -314.27)"/><path class="cls-2" d="M293,430.52H277.54v-7.36H293a16,16,0,0,0,5.23-.81c2.24-.73,3.32-1.86,3.32-3.24,0-1.21-2.07-2.34-6.23-3.31-5.9-1.38-9.72-2.51-11.63-3.4-4.15-1.94-6.23-4.77-6.23-8.41,0-4,2.16-7,6.4-9.23a25.23,25.23,0,0,1,11.79-2.67h14.54v8.34H295.89a13.2,13.2,0,0,0-4.32.64c-1.91.65-2.82,1.54-2.82,2.75,0,1,2.08,1.95,6.23,2.92a61.42,61.42,0,0,1,11.55,3.72c4.15,2.1,6.23,4.85,6.23,8.33C312.76,426.63,306.19,430.52,293,430.52Z" transform="translate(-146.62 -314.27)"/><path class="cls-2" d="M343.66,404.47H329q2.74-4.12,8.48-4.13C340.67,400.34,342.74,401.72,343.66,404.47Zm11.71,26.21v-8.25h-18c-6.23,0-9.63-3.32-10-9.95h28.08v-4.29A14.78,14.78,0,0,0,350,396.3c-3.41-2.83-7.73-4.21-12.88-4.21a21.18,21.18,0,0,0-15,5.58q-6,5.47-6,14.33a17.7,17.7,0,0,0,4,11.72A18.13,18.13,0,0,0,331,430a45.32,45.32,0,0,0,6.06.65c1.75.08,2.49.16,2.41.16C343.41,430.84,348.72,430.76,355.37,430.68Z" transform="translate(-146.62 -314.27)"/><path class="cls-2" d="M370.9,387.24a6,6,0,0,1-4.49,1.86,5.62,5.62,0,0,1-4.4-1.78,6.7,6.7,0,0,1-1.66-4.61,6.49,6.49,0,0,1,1.66-4.53,5.74,5.74,0,0,1,4.49-1.86,5.61,5.61,0,0,1,4.4,1.78,6.21,6.21,0,0,1,1.75,4.53A6.4,6.4,0,0,1,370.9,387.24Zm-10,43.36v-39h11v39Z" transform="translate(-146.62 -314.27)"/><path class="cls-2" d="M378.79,430.6V375.51h11V430.6Z" transform="translate(-146.62 -314.27)"/><path class="cls-2" d="M396.57,430.6V375.51h11V430.6Z" transform="translate(-146.62 -314.27)"/><path class="cls-2" d="M439.68,404.47H425q2.73-4.12,8.47-4.13Q438.31,400.34,439.68,404.47Zm11.71,26.21v-8.25h-18c-6.23,0-9.64-3.32-10.05-9.95h28.07v-4.29A14.75,14.75,0,0,0,446,396.3c-3.4-2.83-7.72-4.21-12.87-4.21a21.18,21.18,0,0,0-15,5.58q-6,5.47-6,14.33a17.66,17.66,0,0,0,4,11.72A18.07,18.07,0,0,0,427,430a45.27,45.27,0,0,0,6.07.65c1.74.08,2.49.16,2.4.16C439.43,430.84,444.75,430.76,451.39,430.68Z" transform="translate(-146.62 -314.27)"/><path class="cls-2" d="M489.68,384.25v6.63h23.76v8.5H489.68V430.6H478.22V375.51h36.72v8.74Z" transform="translate(-146.62 -314.27)"/><path class="cls-2" d="M543.59,411.51a13.22,13.22,0,0,1-2.32,7.93,8.52,8.52,0,0,1-7.23,3.72,8.2,8.2,0,0,1-7-3.64,13.2,13.2,0,0,1-2.24-7.69,12.2,12.2,0,0,1,2.49-7.84,8.88,8.88,0,0,1,7.39-3.48,7.67,7.67,0,0,1,6.73,3.56A12.47,12.47,0,0,1,543.59,411.51Zm11,.24a18.75,18.75,0,0,0-5.73-14.15c-3.74-3.64-8.64-5.51-14.54-5.51a20.55,20.55,0,0,0-14.78,5.58c-3.91,3.65-5.82,8.42-5.82,14.24s1.91,10.52,5.82,14.16a20.41,20.41,0,0,0,14.62,5.5q9,0,14.7-5.58A19.07,19.07,0,0,0,554.64,411.75Z" transform="translate(-146.62 -314.27)"/><path class="cls-2" d="M574.08,430.52H558.63v-7.36h15.45a16,16,0,0,0,5.23-.81c2.25-.73,3.32-1.86,3.32-3.24,0-1.21-2.07-2.34-6.23-3.31-5.89-1.38-9.72-2.51-11.62-3.4-4.16-1.94-6.24-4.77-6.24-8.41,0-4,2.17-7,6.4-9.23a25.27,25.27,0,0,1,11.8-2.67h14.53v8.34H577a13.12,13.12,0,0,0-4.32.64c-1.92.65-2.83,1.54-2.83,2.75,0,1,2.08,1.95,6.23,2.92a61.42,61.42,0,0,1,11.55,3.72c4.15,2.1,6.23,4.85,6.23,8.33C593.85,426.63,587.29,430.52,574.08,430.52Z" transform="translate(-146.62 -314.27)"/><path class="cls-2" d="M676.05,442c-15.3-13.92-30.86-19.51-46.27-16.62-31.75,6-52.23,46.44-52.43,46.85a.64.64,0,0,0,1.06.71c50.44-57.41,96.41-30.2,96.87-29.92a.65.65,0,0,0,.85-.16A.64.64,0,0,0,676.05,442Z" transform="translate(-146.62 -314.27)"/><path class="cls-2" d="M159.26,456.73h-6.64a7.68,7.68,0,0,1-4.41-1.09,3.49,3.49,0,0,1-1.55-3v-8.82h4v9.42c0,.35.25.67.74,1a2.8,2.8,0,0,0,1.54.47h6.36Z" transform="translate(-146.62 -314.27)"/><path class="cls-2" d="M176.7,456.75l-5.47,0-.83,0c-.46,0-1.15-.07-2.08-.16a7.49,7.49,0,0,1-3.75-1.48,3.43,3.43,0,0,1-1.35-2.75,3.86,3.86,0,0,1,2.05-3.37,9.46,9.46,0,0,1,5.16-1.31,9,9,0,0,1,4.42,1,3.15,3.15,0,0,1,1.85,2.79v1H167c.15,1.56,1.3,2.34,3.46,2.34h6.2Zm-4-6.16c-.3-.65-1-1-2.14-1a3.89,3.89,0,0,0-2.91,1Z" transform="translate(-146.62 -314.27)"/><path class="cls-2" d="M204,452.7a4,4,0,0,1-1.76,3.32,7.59,7.59,0,0,1-4.69,1.33,5.7,5.7,0,0,1-3.07-.79v4.58h-3.82V452a3.44,3.44,0,0,1,1.84-3,8.48,8.48,0,0,1,4.63-1.16,8.21,8.21,0,0,1,5,1.44A4.2,4.2,0,0,1,204,452.7Zm-3.82-.06a3,3,0,0,0-3.05-2.92,3.5,3.5,0,0,0-1.18.21q-1.5.52-1.47,2.67v.69a1.83,1.83,0,0,0,.76,1.44,2.92,2.92,0,0,0,1.92.63,3,3,0,0,0,2.26-.91A2.6,2.6,0,0,0,200.18,452.64Z" transform="translate(-146.62 -314.27)"/><path class="cls-2" d="M222,452.3a3.89,3.89,0,0,1-2,3.34,8.88,8.88,0,0,1-5.05,1.32,9,9,0,0,1-5-1.3,3.79,3.79,0,0,1,0-6.67,9.09,9.09,0,0,1,5.07-1.31,8.82,8.82,0,0,1,5,1.3A3.87,3.87,0,0,1,222,452.3Zm-3.82-.06a2.41,2.41,0,0,0-.74-1.73,3.14,3.14,0,0,0-2.29-.83,3.69,3.69,0,0,0-2.51.81,2.31,2.31,0,0,0-.85,1.83,2.46,2.46,0,0,0,.76,1.79,3.27,3.27,0,0,0,2.38.85,3.49,3.49,0,0,0,2.46-.87A2.51,2.51,0,0,0,218.14,452.24Z" transform="translate(-146.62 -314.27)"/><path class="cls-2" d="M235.86,449.66h-2.45a3.6,3.6,0,0,0-2,.57,1.63,1.63,0,0,0-.86,1.36v5.14h-3.7v-5.06a3.33,3.33,0,0,1,1.85-3,9.77,9.77,0,0,1,4.76-1h2.45Z" transform="translate(-146.62 -314.27)"/><path class="cls-2" d="M247.46,456.84h-1.62a7.6,7.6,0,0,1-4.41-1.09,3.51,3.51,0,0,1-1.55-3v-7.48h4v2.41h2.77v1.94h-2.77v3.72c0,.34.25.68.74,1a2.75,2.75,0,0,0,1.54.49h1.34Z" transform="translate(-146.62 -314.27)"/><path class="cls-2" d="M274.14,456.75l-5.47,0-.83,0c-.46,0-1.15-.07-2.08-.16a7.49,7.49,0,0,1-3.75-1.48,3.43,3.43,0,0,1-1.35-2.75,3.86,3.86,0,0,1,2-3.37,9.46,9.46,0,0,1,5.16-1.31,9,9,0,0,1,4.42,1,3.15,3.15,0,0,1,1.85,2.79v1h-9.66c.15,1.56,1.3,2.34,3.46,2.34h6.2Zm-4-6.16c-.31-.65-1-1-2.14-1a3.89,3.89,0,0,0-2.91,1Z" transform="translate(-146.62 -314.27)"/><path class="cls-2" d="M290.78,453.92c0,1-.68,1.72-2,2.29a11.66,11.66,0,0,1-8.15,0c-1.39-.57-2.08-1.33-2.08-2.28v-6h3.73v5.55a1.28,1.28,0,0,0,.7,1.12,3.21,3.21,0,0,0,1.72.44,3.44,3.44,0,0,0,1.81-.36,1.32,1.32,0,0,0,.56-1.2v-5.55h3.76Z" transform="translate(-146.62 -314.27)"/><path class="cls-2" d="M305,449.66h-2.45a3.63,3.63,0,0,0-2,.57,1.62,1.62,0,0,0-.85,1.36v5.14h-3.71v-5.06a3.33,3.33,0,0,1,1.85-3,9.77,9.77,0,0,1,4.76-1H305Z" transform="translate(-146.62 -314.27)"/><path class="cls-2" d="M322.56,452.3a3.89,3.89,0,0,1-2,3.34,10.33,10.33,0,0,1-10.07,0,3.79,3.79,0,0,1,0-6.67,9.09,9.09,0,0,1,5.07-1.31,8.86,8.86,0,0,1,5,1.3A3.86,3.86,0,0,1,322.56,452.3Zm-3.82-.06a2.41,2.41,0,0,0-.74-1.73,3.12,3.12,0,0,0-2.28-.83,3.7,3.7,0,0,0-2.52.81,2.34,2.34,0,0,0-.85,1.83,2.43,2.43,0,0,0,.77,1.79,3.23,3.23,0,0,0,2.37.85,3.46,3.46,0,0,0,2.46-.87A2.47,2.47,0,0,0,318.74,452.24Z" transform="translate(-146.62 -314.27)"/><path class="cls-2" d="M348.06,456.73h-3.73v-5.57a1.25,1.25,0,0,0-.7-1.11,3.18,3.18,0,0,0-1.72-.43,3.55,3.55,0,0,0-1.81.35,1.31,1.31,0,0,0-.56,1.19v5.57h-3.76v-5.57a1.25,1.25,0,0,0-.7-1.11,3.18,3.18,0,0,0-1.72-.43,3.55,3.55,0,0,0-1.81.35,1.31,1.31,0,0,0-.56,1.19v5.57h-3.76v-6c0-1,.69-1.72,2-2.29a10.57,10.57,0,0,1,4.08-.73,8.48,8.48,0,0,1,4.27,1,7.45,7.45,0,0,1,4.28-1,10.63,10.63,0,0,1,4.07.73c1.39.57,2.08,1.33,2.08,2.29Z" transform="translate(-146.62 -314.27)"/><path class="cls-2" d="M365.91,456.75l-5.48,0-.82,0c-.46,0-1.15-.07-2.08-.16a7.49,7.49,0,0,1-3.75-1.48,3.43,3.43,0,0,1-1.35-2.75,3.86,3.86,0,0,1,2.05-3.37,9.43,9.43,0,0,1,5.16-1.31,8.91,8.91,0,0,1,4.41,1,3.14,3.14,0,0,1,1.86,2.79v1h-9.67c.16,1.56,1.31,2.34,3.46,2.34h6.21Zm-4-6.16c-.31-.65-1-1-2.14-1a3.89,3.89,0,0,0-2.91,1Z" transform="translate(-146.62 -314.27)"/><path class="cls-2" d="M383.26,452.78a3.48,3.48,0,0,1-1.82,3,8.51,8.51,0,0,1-4.62,1.16,8.11,8.11,0,0,1-5-1.45A4.17,4.17,0,0,1,370,452a4,4,0,0,1,1.77-3.32,7.62,7.62,0,0,1,4.7-1.34,5.55,5.55,0,0,1,3.08.82V443.6h3.76Zm-3.76-.65v-.7a1.86,1.86,0,0,0-.77-1.44,3.24,3.24,0,0,0-4.19.3,2.57,2.57,0,0,0-.77,1.8,2.82,2.82,0,0,0,.77,1.9,2.86,2.86,0,0,0,2.3,1,3.6,3.6,0,0,0,1.19-.21C379,454.45,379.52,453.56,379.5,452.13Z" transform="translate(-146.62 -314.27)"/><path class="cls-2" d="M392.13,445.46a1.29,1.29,0,0,1-.6,1.08A2.55,2.55,0,0,1,390,447a2.42,2.42,0,0,1-1.51-.43,1.29,1.29,0,0,1,0-2.14A2.47,2.47,0,0,1,390,444a2.55,2.55,0,0,1,1.52.42A1.26,1.26,0,0,1,392.13,445.46Zm-.26,11.27h-3.76v-9.16h3.76Z" transform="translate(-146.62 -314.27)"/><path class="cls-2" d="M404.12,456.84H402.5a7.55,7.55,0,0,1-4.4-1.09,3.49,3.49,0,0,1-1.56-3v-7.48h4v2.41h2.77v1.94H400.5v3.72c0,.34.25.68.75,1a2.69,2.69,0,0,0,1.53.49h1.34Z" transform="translate(-146.62 -314.27)"/><path class="cls-2" d="M421.25,456.75l-5.47,0-.83,0c-.45,0-1.15-.07-2.08-.16a7.49,7.49,0,0,1-3.74-1.48,3.41,3.41,0,0,1-1.36-2.75,3.88,3.88,0,0,1,2.05-3.37,9.46,9.46,0,0,1,5.16-1.31,9,9,0,0,1,4.42,1,3.15,3.15,0,0,1,1.85,2.79v1h-9.66c.15,1.56,1.31,2.34,3.46,2.34h6.2Zm-4-6.16c-.3-.65-1-1-2.13-1a3.89,3.89,0,0,0-2.91,1Z" transform="translate(-146.62 -314.27)"/><path class="cls-2" d="M435,449.66h-2.45a3.6,3.6,0,0,0-2.05.57,1.63,1.63,0,0,0-.86,1.36v5.14h-3.7v-5.06a3.32,3.32,0,0,1,1.85-3,9.74,9.74,0,0,1,4.76-1H435Z" transform="translate(-146.62 -314.27)"/><path class="cls-2" d="M448.53,449.66h-2.45a3.64,3.64,0,0,0-2.06.57,1.62,1.62,0,0,0-.85,1.36v5.14h-3.71v-5.06a3.32,3.32,0,0,1,1.86-3,9.72,9.72,0,0,1,4.76-1h2.45Z" transform="translate(-146.62 -314.27)"/><path class="cls-2" d="M465.68,452.78a3.48,3.48,0,0,1-1.82,3,8.51,8.51,0,0,1-4.62,1.16,8.11,8.11,0,0,1-5-1.45,4.17,4.17,0,0,1-1.86-3.47,4,4,0,0,1,1.77-3.32,7.62,7.62,0,0,1,4.7-1.34,5.55,5.55,0,0,1,3.08.82v-.59h3.76Zm-3.76-.65v-.7a1.85,1.85,0,0,0-.76-1.44,3,3,0,0,0-1.93-.63,2.93,2.93,0,0,0-2.27.93,2.57,2.57,0,0,0-.77,1.8A2.82,2.82,0,0,0,457,454a2.85,2.85,0,0,0,2.29,1,3.61,3.61,0,0,0,1.2-.21C461.45,454.45,461.94,453.56,461.92,452.13Z" transform="translate(-146.62 -314.27)"/><path class="cls-2" d="M482.81,456.73h-3.73v-5.57a1.27,1.27,0,0,0-.7-1.11,3.21,3.21,0,0,0-1.72-.43,3.55,3.55,0,0,0-1.81.35,1.29,1.29,0,0,0-.56,1.19v5.57h-3.76v-6c0-1,.68-1.72,2.05-2.29a10.57,10.57,0,0,1,4.08-.73,10.7,10.7,0,0,1,4.07.73c1.39.57,2.08,1.33,2.08,2.29Z" transform="translate(-146.62 -314.27)"/><path class="cls-2" d="M500.65,456.75l-5.47,0-.83,0c-.45,0-1.15-.07-2.08-.16a7.57,7.57,0,0,1-3.75-1.48,3.43,3.43,0,0,1-1.35-2.75,3.86,3.86,0,0,1,2.05-3.37,9.46,9.46,0,0,1,5.16-1.31,9,9,0,0,1,4.42,1,3.15,3.15,0,0,1,1.85,2.79v1H491c.15,1.56,1.3,2.34,3.46,2.34h6.2Zm-4-6.16c-.3-.65-1-1-2.13-1a3.87,3.87,0,0,0-2.91,1Z" transform="translate(-146.62 -314.27)"/><path class="cls-2" d="M517.84,456.75l-5.47,0-.83,0c-.46,0-1.15-.07-2.08-.16a7.49,7.49,0,0,1-3.75-1.48,3.43,3.43,0,0,1-1.35-2.75,3.86,3.86,0,0,1,2.05-3.37,9.46,9.46,0,0,1,5.16-1.31,8.91,8.91,0,0,1,4.41,1,3.14,3.14,0,0,1,1.86,2.79v1h-9.66q.22,2.34,3.45,2.34h6.21Zm-4-6.16c-.31-.65-1-1-2.14-1a3.89,3.89,0,0,0-2.91,1Z" transform="translate(-146.62 -314.27)"/><path class="cls-2" d="M534.62,456.73h-3.73v-5.57a1.25,1.25,0,0,0-.7-1.11,3.21,3.21,0,0,0-1.72-.43,3.55,3.55,0,0,0-1.81.35,1.31,1.31,0,0,0-.56,1.19v5.57h-3.76v-6c0-1,.68-1.72,2-2.29a11.74,11.74,0,0,1,8.15,0c1.39.57,2.08,1.33,2.08,2.29Z" transform="translate(-146.62 -314.27)"/><path class="cls-2" d="M492.58,447l2.93-3.41h4.19L495.86,447Z" transform="translate(-146.62 -314.27)"/><path class="cls-2" d="M358.34,447l2.93-3.41h4.19L361.62,447Z" transform="translate(-146.62 -314.27)"/></svg>