<svg xmlns="http://www.w3.org/2000/svg" xmlns:xlink="http://www.w3.org/1999/xlink" width="253.043" height="97.041" viewBox="0 0 253.043 97.041">
  <defs>
    <clipPath id="clip-path">
      <rect id="Rectangle_7794" data-name="Rectangle 7794" width="253.043" height="97.041" fill="none"/>
    </clipPath>
  </defs>
  <g id="logo" transform="translate(0 0)">
    <g id="Groupe_6697" data-name="Groupe 6697" transform="translate(0 0)" clip-path="url(#clip-path)">
      <path id="Tracé_786" data-name="Tracé 786" d="M71.382,38.047h4.644a6.675,6.675,0,0,0,6.7-6.634v-.261a6.708,6.708,0,0,0-2.28-4.872A6.022,6.022,0,0,0,82.466,21.7a6.267,6.267,0,0,0-6.44-6.375H71.382a2.078,2.078,0,0,0-2.024,2.025v18.67a2.077,2.077,0,0,0,2.024,2.024m7.3-6.895v.261a2.622,2.622,0,0,1-2.619,2.618H73.407v-5.66h2.652a2.741,2.741,0,0,1,2.619,2.781M78.417,21.7a2.435,2.435,0,0,1-2.359,2.652H73.407v-5.01h2.652A2.189,2.189,0,0,1,78.417,21.7" transform="translate(28.313 6.258)" fill="#fff"/>
      <path id="Tracé_787" data-name="Tracé 787" d="M88.54,38.267a6.426,6.426,0,0,0,6.634-6.506V21.695a6.5,6.5,0,0,0-6.634-6.5h-.293a6.579,6.579,0,0,0-6.636,6.5v10.1a6.486,6.486,0,0,0,6.636,6.474Zm2.585-6.474a2.484,2.484,0,0,1-2.585,2.49h-.293a2.5,2.5,0,0,1-2.587-2.522V21.695a2.483,2.483,0,0,1,2.587-2.488h.293a2.483,2.483,0,0,1,2.585,2.488Z" transform="translate(33.316 6.201)" fill="#fff"/>
      <path id="Tracé_788" data-name="Tracé 788" d="M98.2,28.891h1.718l3.89,8.165a1.854,1.854,0,0,0,1.752,1.155,2.055,2.055,0,0,0,2.122-1.96,2.194,2.194,0,0,0-.241-.9L104.092,28.3a6.528,6.528,0,0,0,3.816-6.045v-.292a6.564,6.564,0,0,0-6.636-6.636h-5.1a2.079,2.079,0,0,0-2.025,2.025V36.218a2.025,2.025,0,0,0,4.049,0Zm5.661-6.927v.292a2.458,2.458,0,0,1-2.393,2.619H98.2v-5.53h3.17a2.5,2.5,0,0,1,2.491,2.619" transform="translate(38.434 6.258)" fill="#fff"/>
      <path id="Tracé_789" data-name="Tracé 789" d="M120.216,31.508V21.833a6.5,6.5,0,0,0-6.634-6.5h-4.9a2.078,2.078,0,0,0-2.025,2.025v18.67a2.078,2.078,0,0,0,2.025,2.024h4.9a6.517,6.517,0,0,0,6.634-6.538m-4.049.032a2.484,2.484,0,0,1-2.585,2.49H110.7V19.344h2.88a2.483,2.483,0,0,1,2.585,2.488Z" transform="translate(43.538 6.258)" fill="#fff"/>
      <path id="Tracé_790" data-name="Tracé 790" d="M132.753,36.056a1.94,1.94,0,0,0-2.024-2.024h-7.49V28.371h4.925a2.008,2.008,0,1,0,0-4.016h-4.925v-5.01h7.49a2.008,2.008,0,1,0,0-4.016h-9.514a2.077,2.077,0,0,0-2.024,2.025v18.67a2.076,2.076,0,0,0,2.024,2.024h9.514a1.943,1.943,0,0,0,2.024-1.991" transform="translate(48.657 6.258)" fill="#fff"/>
      <path id="Tracé_791" data-name="Tracé 791" d="M142.312,33.038l1.17,3.829a1.839,1.839,0,0,0,1.856,1.4,1.953,1.953,0,0,0,2.088-1.926,2.311,2.311,0,0,0-.1-.659l-5.909-18.8a2.293,2.293,0,0,0-4.425,0l-5.937,18.787a1.494,1.494,0,0,0-.11.673,1.954,1.954,0,0,0,2.09,1.926,1.884,1.884,0,0,0,1.89-1.4l1.169-3.829Zm-1.253-4.016h-3.715L139.2,22.8Z" transform="translate(53.453 6.201)" fill="#fff"/>
      <path id="Tracé_792" data-name="Tracé 792" d="M151.309,38.267h.293a6.643,6.643,0,0,0,6.667-6.6V17.215a2.024,2.024,0,1,0-4.049,0V31.663a2.621,2.621,0,0,1-2.618,2.619h-.293a2.576,2.576,0,0,1-2.587-2.619V17.215a2.024,2.024,0,1,0-4.047,0V31.663a6.626,6.626,0,0,0,6.634,6.6" transform="translate(59.059 6.201)" fill="#fff"/>
      <path id="Tracé_793" data-name="Tracé 793" d="M160.659,37.182l3.121-6.241,3.09,6.243a1.881,1.881,0,0,0,1.749,1.083,1.96,1.96,0,0,0,1.879-2.9L166.016,26.4l4.122-8.276a1.985,1.985,0,0,0-1.845-2.938,1.862,1.862,0,0,0-1.749,1.118l-2.764,5.558-2.763-5.555a1.883,1.883,0,0,0-1.75-1.121,2.029,2.029,0,0,0-2.088,1.959,2.137,2.137,0,0,0,.21.972l4.125,8.283-4.447,8.959a1.961,1.961,0,0,0,1.877,2.9,1.823,1.823,0,0,0,1.717-1.084" transform="translate(64.017 6.201)" fill="#fff"/>
      <path id="Tracé_794" data-name="Tracé 794" d="M84.5,37.456h-.487c-1.307,0-1.791.845-2.174,1.705l-3.9,8.8-3.9-8.8c-.384-.86-.869-1.705-2.176-1.705h-.486a2.078,2.078,0,0,0-2.025,2.024V58.54a2.025,2.025,0,0,0,4.049,0v-11.2l2.49,5.739a2.223,2.223,0,0,0,4.089,0l2.491-5.741v11.2a2.024,2.024,0,0,0,4.047,0V39.48A2.077,2.077,0,0,0,84.5,37.456" transform="translate(28.313 15.291)" fill="#fff"/>
      <path id="Tracé_795" data-name="Tracé 795" d="M96.127,41.61a2.008,2.008,0,1,0,0-4.016H86.613a2.078,2.078,0,0,0-2.024,2.025v18.67a2.078,2.078,0,0,0,2.024,2.024h9.514a2.008,2.008,0,1,0,0-4.016H88.638v-5.66h4.925a2.008,2.008,0,1,0,0-4.016H88.638V41.61Z" transform="translate(34.531 15.347)" fill="#fff"/>
      <path id="Tracé_796" data-name="Tracé 796" d="M107.8,37.594H98.836a2.008,2.008,0,1,0,0,4.016h2.456V58.484a2.025,2.025,0,0,0,4.049,0V41.61H107.8a2.008,2.008,0,1,0,0-4.016" transform="translate(39.52 15.347)" fill="#fff"/>
      <path id="Tracé_797" data-name="Tracé 797" d="M115.933,37.594h-5.1a2.078,2.078,0,0,0-2.025,2.025V58.484a2.025,2.025,0,0,0,4.049,0V51.157h1.719l3.89,8.165a1.854,1.854,0,0,0,1.752,1.155,2.055,2.055,0,0,0,2.121-1.96,2.172,2.172,0,0,0-.241-.9l-3.347-7.045a6.525,6.525,0,0,0,3.816-6.044V44.23a6.565,6.565,0,0,0-6.636-6.636m2.587,6.636v.293a2.457,2.457,0,0,1-2.393,2.618h-3.268V41.61h3.171a2.5,2.5,0,0,1,2.49,2.619" transform="translate(44.419 15.347)" fill="#fff"/>
      <path id="Tracé_798" data-name="Tracé 798" d="M128.349,37.456h-.292a6.579,6.579,0,0,0-6.636,6.5v10.1a6.486,6.486,0,0,0,6.636,6.474h.292a6.428,6.428,0,0,0,6.636-6.506V43.961a6.5,6.5,0,0,0-6.636-6.5m2.587,6.5v10.1a2.484,2.484,0,0,1-2.587,2.49h-.292a2.5,2.5,0,0,1-2.587-2.522V43.961a2.484,2.484,0,0,1,2.587-2.49h.292a2.484,2.484,0,0,1,2.587,2.49" transform="translate(49.567 15.291)" fill="#fff"/>
      <path id="Tracé_799" data-name="Tracé 799" d="M140.887,37.594h-4.9a2.078,2.078,0,0,0-2.024,2.025V58.484a2.025,2.025,0,0,0,4.049,0V50.831h2.878a6.619,6.619,0,1,0,0-13.237m2.587,6.6a2.575,2.575,0,0,1-2.587,2.618h-2.878v-5.2h2.878a2.59,2.59,0,0,1,2.587,2.587" transform="translate(54.685 15.347)" fill="#fff"/>
      <path id="Tracé_800" data-name="Tracé 800" d="M152.945,37.456h-.293a6.577,6.577,0,0,0-6.634,6.5v10.1a6.485,6.485,0,0,0,6.634,6.472h.293a6.426,6.426,0,0,0,6.634-6.5V43.961a6.5,6.5,0,0,0-6.634-6.5m2.585,16.6a2.484,2.484,0,0,1-2.585,2.49h-.293a2.5,2.5,0,0,1-2.587-2.522V43.961a2.484,2.484,0,0,1,2.587-2.49h.293a2.484,2.484,0,0,1,2.585,2.49Z" transform="translate(59.608 15.291)" fill="#fff"/>
      <path id="Tracé_801" data-name="Tracé 801" d="M168.981,56.353h-6.255V39.48a2.024,2.024,0,0,0-4.049,0V58.346a2.077,2.077,0,0,0,2.024,2.024h8.28a2.008,2.008,0,1,0,0-4.016" transform="translate(64.775 15.291)" fill="#fff"/>
      <path id="Tracé_802" data-name="Tracé 802" d="M181.6,56.3h-7.489v-5.66h4.923a2.008,2.008,0,1,0,0-4.016h-4.923V41.61H181.6a2.008,2.008,0,1,0,0-4.016h-9.514a2.078,2.078,0,0,0-2.024,2.025v18.67a2.078,2.078,0,0,0,2.024,2.024H181.6a2.008,2.008,0,1,0,0-4.016" transform="translate(69.422 15.347)" fill="#fff"/>
      <path id="Tracé_803" data-name="Tracé 803" d="M92.049,32.817l-4.544,2.24a1.838,1.838,0,0,0-1.118,1.718,2.025,2.025,0,0,0,1.926,2.056,2.3,2.3,0,0,0,.905-.241l4.546-2.208a1.84,1.84,0,0,0,1.12-1.718,2.026,2.026,0,0,0-1.928-2.056,2.3,2.3,0,0,0-.907.208" transform="translate(35.265 13.312)" fill="#fff"/>
      <path id="Tracé_804" data-name="Tracé 804" d="M50.306,61.128a2.423,2.423,0,0,1-1.815-.814L23.407,32.142a2.43,2.43,0,0,1,3.629-3.232L52.119,57.084a2.429,2.429,0,0,1-1.814,4.044" transform="translate(9.304 11.47)" fill="#dd1a45"/>
      <path id="Tracé_805" data-name="Tracé 805" d="M46.135,58.02a2.427,2.427,0,0,1-2.073-1.16L33.37,39.409a2.429,2.429,0,1,1,4.143-2.538L48.2,54.322a2.428,2.428,0,0,1-2.069,3.7" transform="translate(13.476 14.578)" fill="#91c492"/>
      <path id="Tracé_806" data-name="Tracé 806" d="M46.24,61.7A2.431,2.431,0,0,1,43.959,60.1L32.9,29.974A2.429,2.429,0,0,1,37.461,28.3L48.52,58.428A2.428,2.428,0,0,1,46.24,61.7" transform="translate(13.37 10.903)" fill="#e86061"/>
      <path id="Tracé_807" data-name="Tracé 807" d="M44.893,65.224a2.429,2.429,0,0,1-2.4-2.064l-6.424-42.3a2.428,2.428,0,1,1,4.8-.728L47.3,62.43A2.43,2.43,0,0,1,45.26,65.2a2.722,2.722,0,0,1-.368.027" transform="translate(14.713 7.375)" fill="#ffbf00"/>
      <path id="Tracé_808" data-name="Tracé 808" d="M43.036,72.6a2.4,2.4,0,0,1-.515-.055,2.429,2.429,0,0,1-1.862-2.887L55.3,1.916a2.43,2.43,0,0,1,4.75,1.027l-14.64,67.74A2.426,2.426,0,0,1,43.036,72.6" transform="translate(16.575 0.001)" fill="#e86061"/>
      <path id="Tracé_809" data-name="Tracé 809" d="M43.034,65.426a2.425,2.425,0,0,1-2.309-3.181l14.012-43a2.429,2.429,0,1,1,4.619,1.5l-14.012,43a2.431,2.431,0,0,1-2.309,1.677" transform="translate(16.576 7.172)" fill="#2fa070"/>
      <path id="Tracé_810" data-name="Tracé 810" d="M43.032,67.071a2.429,2.429,0,0,1-2.126-3.6L67.656,14.8a2.429,2.429,0,0,1,4.257,2.34L45.162,65.814a2.43,2.43,0,0,1-2.131,1.258" transform="translate(16.576 5.527)" fill="#dd1a45"/>
      <path id="Tracé_811" data-name="Tracé 811" d="M43.032,59.557A2.429,2.429,0,0,1,41.07,55.7L57.646,32.944a2.43,2.43,0,0,1,3.928,2.863L45,58.558a2.42,2.42,0,0,1-1.964,1" transform="translate(16.576 13.042)" fill="#91c492"/>
      <path id="Tracé_812" data-name="Tracé 812" d="M43.033,62.255a2.429,2.429,0,0,1-1.814-4.044L69.747,26.152a2.429,2.429,0,1,1,3.629,3.23L44.848,61.441a2.421,2.421,0,0,1-1.815.814" transform="translate(16.576 10.344)" fill="#ffbf00"/>
      <path id="Tracé_813" data-name="Tracé 813" d="M43.034,57.467a2.428,2.428,0,0,1-1.669-4.194L57.813,37.728a2.429,2.429,0,1,1,3.337,3.53L44.7,56.8a2.424,2.424,0,0,1-1.669.663" transform="translate(16.576 15.131)" fill="#e86061"/>
      <path id="Tracé_814" data-name="Tracé 814" d="M43.036,57.732a2.428,2.428,0,0,1-1.445-4.382L66.074,36.893a2.428,2.428,0,1,1,2.887,3.9L44.478,57.256a2.411,2.411,0,0,1-1.442.476" transform="translate(16.576 14.866)" fill="#2fa070"/>
      <path id="Tracé_815" data-name="Tracé 815" d="M43.036,54.68a2.429,2.429,0,0,1-1.005-4.641L55.1,44.111A2.428,2.428,0,1,1,57.1,48.533l-13.065,5.93a2.442,2.442,0,0,1-1,.217" transform="translate(16.576 17.918)" fill="#dd1a45"/>
      <path id="Tracé_816" data-name="Tracé 816" d="M43.032,54.538a2.429,2.429,0,0,1-.517-4.8L67.36,44.3A2.43,2.43,0,0,1,68.4,49.045L43.553,54.483a2.446,2.446,0,0,1-.521.055" transform="translate(16.575 18.061)" fill="#91c492"/>
      <path id="Tracé_817" data-name="Tracé 817" d="M57.176,57.646a2.413,2.413,0,0,1-.765-.124L42.27,52.837A2.429,2.429,0,1,1,43.8,48.227l14.141,4.684a2.43,2.43,0,0,1-.763,4.736" transform="translate(16.575 19.637)" fill="#ffbf00"/>
      <path id="Tracé_818" data-name="Tracé 818" d="M62.52,66.076a2.413,2.413,0,0,1-1.353-.414L41.677,52.547a2.429,2.429,0,1,1,2.712-4.03l19.49,13.115a2.429,2.429,0,0,1-1.359,4.444" transform="translate(16.575 19.637)" fill="#e86061"/>
      <path id="Tracé_819" data-name="Tracé 819" d="M51.671,66.075a2.426,2.426,0,0,1-2.031-1.093L41.005,51.868A2.43,2.43,0,0,1,45.064,49.2L53.7,62.309a2.43,2.43,0,0,1-2.026,3.766" transform="translate(16.576 19.637)" fill="#2fa070"/>
      <path id="Tracé_820" data-name="Tracé 820" d="M43.315,75.69a2.428,2.428,0,0,1-2.428-2.4L40.6,50.562A2.431,2.431,0,0,1,43,48.1h.031a2.43,2.43,0,0,1,2.428,2.4l.282,22.729a2.429,2.429,0,0,1-2.4,2.459Z" transform="translate(16.575 19.637)" fill="#dd1a45"/>
      <path id="Tracé_821" data-name="Tracé 821" d="M41.158,65.684a2.48,2.48,0,0,1-.69-.025,2.429,2.429,0,0,1-1.955-2.825l2.335-12.847a2.429,2.429,0,1,1,4.78.869L43.293,63.7a2.431,2.431,0,0,1-2.135,1.981" transform="translate(15.706 19.592)" fill="#e86061"/>
      <path id="Tracé_822" data-name="Tracé 822" d="M32.554,77.4a2.428,2.428,0,0,1-2.214-3.426L45.1,49.537a2.429,2.429,0,0,1,4.43,1.993L34.771,75.972A2.431,2.431,0,0,1,32.554,77.4" transform="translate(12.298 19.637)" fill="#ffbf00"/>
      <path id="Tracé_823" data-name="Tracé 823" d="M32.212,64.627a2.429,2.429,0,0,1-1.59-4.267L45.862,48.7a2.429,2.429,0,0,1,3.177,3.675L33.8,64.035a2.417,2.417,0,0,1-1.587.591" transform="translate(12.158 19.637)" fill="#91c492"/>
      <path id="Tracé_824" data-name="Tracé 824" d="M44.582,56.18A2.429,2.429,0,0,1,42.391,54.8L37.056,43.7a2.429,2.429,0,0,1,4.38-2.1L46.769,52.7a2.426,2.426,0,0,1-1.136,3.239,2.4,2.4,0,0,1-1.051.241" transform="translate(15.029 16.418)" fill="#dd1a45"/>
      <path id="Tracé_825" data-name="Tracé 825" d="M54.3,62.609a2.418,2.418,0,0,1-1.58-.584L13.844,28.682a2.429,2.429,0,1,1,3.163-3.688L55.878,58.336A2.429,2.429,0,0,1,54.3,62.609" transform="translate(5.305 9.965)" fill="#2fa070"/>
      <path id="Tracé_826" data-name="Tracé 826" d="M59.611,53.5h-.08L2.352,51.65a2.429,2.429,0,1,1,.156-4.856l57.179,1.845a2.429,2.429,0,0,1-.076,4.857" transform="translate(0 19.102)" fill="#2fa070"/>
      <path id="Tracé_827" data-name="Tracé 827" d="M49.537,54.156a2.449,2.449,0,0,1-.449-.042L26.6,49.906a2.429,2.429,0,1,1,.893-4.775l22.491,4.208a2.429,2.429,0,0,1-.444,4.818" transform="translate(10.048 18.407)" fill="#dd1a45"/>
      <path id="Tracé_828" data-name="Tracé 828" d="M55.155,59.533a2.408,2.408,0,0,1-1.158-.3L12.144,36.51a2.429,2.429,0,0,1,2.319-4.268L56.317,54.969a2.429,2.429,0,0,1-1.162,4.564" transform="translate(4.439 13.042)" fill="#ffbf00"/>
      <path id="Tracé_829" data-name="Tracé 829" d="M52.3,56.641a2.419,2.419,0,0,1-.9-.172L19.437,43.776a2.428,2.428,0,1,1,1.793-4.513L53.2,51.956a2.428,2.428,0,0,1-.9,4.685" transform="translate(7.308 15.957)" fill="#91c492"/>
      <path id="Tracé_830" data-name="Tracé 830" d="M49.515,56.913a2.413,2.413,0,0,1-1.372-.427L25.777,42.855a2.428,2.428,0,1,1,2.747-4L50.891,52.481a2.429,2.429,0,0,1-1.376,4.432" transform="translate(10.092 15.686)" fill="#e86061"/>
    </g>
  </g>
</svg>
